<svg width="1184" height="300" viewBox="0 0 1184 300" fill="none" xmlns="http://www.w3.org/2000/svg">
<mask id="mask0_17748_98853" style="mask-type:alpha" maskUnits="userSpaceOnUse" x="0" y="0" width="1184" height="300">
<path d="M0 0C462.381 0 721.619 0 1184 0V300H0V0Z" fill="#212121"/>
</mask>
<g mask="url(#mask0_17748_98853)">
<g opacity="0.02" filter="url(#filter0_f_17748_98853)">
<ellipse cx="592.5" cy="87.4286" rx="112.5" ry="96.4286" fill="#D9D9D9"/>
</g>
<g opacity="0.05" filter="url(#filter1_f_17748_98853)">
<ellipse cx="592.5" cy="97.286" rx="112.5" ry="96.4286" fill="#D9D9D9"/>
</g>
<path opacity="0.4" d="M51.1541 271.751C79.5483 249.759 112.502 228.076 145.252 214.552C154.269 210.798 162.228 208.193 170.145 202.919C198.611 183.729 238.108 152.399 267.622 134.346C275.286 130.479 290.887 139.402 299.548 145.151C314.844 155.553 330.14 163.938 347.665 170.556C356.55 173.761 367.083 177.732 376.111 175.643C385.29 173.337 394.155 165.706 402.449 160.144C418.936 148.708 431.24 139.175 444.45 124.192C455.849 112.694 466.484 96.8434 481.19 90.3707C492.598 86.059 506.449 85.7902 516.85 78.449C540.014 61.5124 566.128 22.7588 588.162 13.1842C613.167 5.0778 622.652 40.8225 639.312 52.6098C648.716 59.3824 661.671 59.0619 672.072 67.251C679.552 72.9585 684.254 81.5406 688.295 89.9882C692.559 98.6943 696.457 108.372 704.232 113.997C713.687 121.142 726.601 119.25 733.949 127.232C742.05 135.762 744.584 151.024 755.83 156.318C765.041 160.599 777.273 153.185 786.463 156.814C806.706 166.337 812.965 196.591 835.701 203.984C868.837 215.885 897.333 178.704 919.733 159.74C932.322 146.96 948.351 147.943 961.47 159.606C982.363 177.401 1006.23 194.554 1022 216.527C1035 234.021 1044.21 256.252 1061.77 269.621C1066.2 272.889 1071.18 275.122 1076.35 275.856C1088.69 277.738 1101.67 270.707 1111.47 277.066C1124.42 285.627 1130.68 301.664 1141.42 312.376C1155.75 326.501 1176.24 346.053 1191.77 360.963C1207.3 374.994 1190.23 371.747 1179.27 371.644C1160.78 370.962 1142.14 369.524 1123.68 371.406C1109.57 372.719 1094.45 376.804 1081.61 370.951C1075.91 368.511 1070.77 364.551 1065.78 360.922C1060.46 356.993 1054.5 352.774 1048.03 353.622C1043.06 354.159 1038.49 356.858 1034.02 359.371C1019.06 367.653 999.319 381.508 987.025 386.864C979.646 388.539 983.605 374.25 982.811 369.69C982.363 351.75 971.871 359.143 961.612 353.942C956.208 350.582 971.148 331.712 976.369 320.638C992.917 288.843 987.452 281.026 954.417 299.286C945.074 303.567 936.159 311.435 926.308 312.862C922.186 311.952 932.984 297.839 939.64 285.689C946.051 273.013 957.409 253.047 943.385 242.086C939.599 238.664 934.724 235.872 933.289 230.671C930.073 223.082 946.204 192.786 930.053 190.77C925.951 190.977 920.507 196.147 917.301 200.107C901.994 217.943 895.176 239.76 876.44 251.858C856.777 261.856 841.328 277.604 828.18 295.326C803.704 328.858 760.675 333.935 725.645 347.759C716.485 351.781 704.517 357.117 712.384 346.198C717.228 337.14 745.724 315.52 736.718 312.035C694.798 311.777 657.346 345.919 623.161 370.393C619.538 372.802 614.632 376.773 610.918 375.697C607.916 374.56 609.656 366.009 607.193 360.736C598.99 348.969 576.885 364.613 566.82 369.711C556.083 375.532 546.69 382.956 546.669 376.493C553.712 352.195 566.637 323.502 574.87 300.093C579.206 288.926 578.88 287.84 572.112 290.839C555.666 298.263 498.674 324.536 477.546 334.162C475.735 334.969 474.259 335.6 473.19 335.972C471.033 336.737 470.544 336.447 471.531 335.01C486.604 318.808 503.05 298.252 521.186 284.686C546.293 266.333 581.068 253.895 608.862 234.156C613.584 230.878 619.945 225.574 619.813 220.352C619.467 212.753 609.737 201.492 601.606 198.504C587.409 196.002 566.006 203.126 550.7 204.781C544.542 205.69 531.2 208.813 534.447 199.838C542.507 179.065 570.006 151.799 581.669 132.619C584.498 128.08 586.177 124.399 585.495 121.7C584.671 118.102 580.854 116.551 578.249 114.297C574.677 111.526 573.934 106.863 574.626 102.282C576.56 90.5465 582.524 67.1062 584.661 55.0397C584.834 51.824 586.309 48.2154 583.49 46.7678C581.577 46.437 577.822 49.3114 573.303 53.5714C557.956 67.9024 543.972 89.3988 530.864 102.758C520.056 114.917 503.569 117.626 490.359 125.981C482.716 130.934 477.261 138.678 470.839 145.079C460.103 155.997 446.893 159.441 436.695 171.321C431.077 177.742 423.75 185.383 420.442 192.983C419.312 196.136 421.165 196.684 425.398 194.43C435.759 189.622 444.949 175.912 455.472 170.68C462.515 168.922 459.858 183.015 456.052 194.503C450.76 209.485 440.847 224.447 431.556 237.299C415.15 260.036 419.038 225.657 404.769 223.899C399.08 222.948 392.14 227.228 387.285 231.054C354.301 258.165 323.006 287.271 282.959 301.333C275.764 303.495 260.132 310.681 265.739 295.864C270.146 283.425 281.463 265.796 283.549 253.129C280.191 240.153 242.067 273.819 237.142 279.299C209.775 305.366 190.52 343.261 157.566 362.007C154.9 363.455 153.526 363.755 153.709 362.752C171.713 336.747 241.558 253.171 260.254 226.018C261.801 220.259 259.033 214.779 258.788 207.541C257.099 198.111 263.195 173.037 250.27 177.111C237.396 184.132 224.583 195.02 213.246 204.76C198.774 218.129 193.247 241.725 183.905 259.923C175.743 277.025 160.66 293.91 146.402 310.205C137.375 319.087 126.465 335.083 116.064 338.288C114.609 338.267 114.772 336.427 116.491 332.984C118.272 329.737 120.725 325.498 123.157 321.982C133.599 306.286 145.914 281.471 148.346 271.017C150.666 262.28 142.748 268.463 139.064 271.193C128.592 278.255 113.174 293.558 102.773 298.138C100.635 298.614 101.042 296.422 102.569 292.245C103.434 289.815 104.645 286.682 105.571 283.446C111.22 263.655 100.819 263.314 90.5906 273.509C72.689 288.585 -6.15344 367.022 -14 340.625C-10.3668 325.012 30.5963 288.491 50.4214 272.299L51.1033 271.751H51.1541Z" fill="white" fill-opacity="0.08"/>
</g>
<defs>
<filter id="filter0_f_17748_98853" x="400" y="-89" width="385" height="352.857" filterUnits="userSpaceOnUse" color-interpolation-filters="sRGB">
<feFlood flood-opacity="0" result="BackgroundImageFix"/>
<feBlend mode="normal" in="SourceGraphic" in2="BackgroundImageFix" result="shape"/>
<feGaussianBlur stdDeviation="40" result="effect1_foregroundBlur_17748_98853"/>
</filter>
<filter id="filter1_f_17748_98853" x="430" y="-49.1426" width="325" height="292.857" filterUnits="userSpaceOnUse" color-interpolation-filters="sRGB">
<feFlood flood-opacity="0" result="BackgroundImageFix"/>
<feBlend mode="normal" in="SourceGraphic" in2="BackgroundImageFix" result="shape"/>
<feGaussianBlur stdDeviation="25" result="effect1_foregroundBlur_17748_98853"/>
</filter>
</defs>
</svg>
